<svg width="80" height="70" viewBox="0 0 80 70" fill="none" xmlns="http://www.w3.org/2000/svg">
<path d="M69.9452 34.9617C68.8936 35.5482 67.8326 36.1157 66.7645 36.6713C67.5254 37.3266 68.2769 37.9962 69.0165 38.6777C69.4064 37.4667 69.7207 36.2178 69.9452 34.9617Z" fill="#F78A97"/>
<path d="M66.6723 38.0556C64.8527 37.0868 65.9893 37.4691 64.2572 37.9393C63.3355 38.1886 62.4187 38.8344 61.5419 39.2428C63.2788 40.8076 64.9968 42.3985 66.6463 44.0559C67.8775 41.9046 69.5033 39.5658 66.6723 38.0556Z" fill="#F78A97"/>
<path d="M67.1402 16.6522C66.8259 17.3882 66.4903 18.1148 66.1359 18.8343C67.5561 18.0436 68.0122 18.3167 67.1402 16.6522Z" fill="#F78A97"/>
<path d="M63.0685 20.4963C63.111 20.4751 63.1228 20.468 63.0685 20.4963V20.4963Z" fill="#F78A97"/>
<path d="M63.4868 48.5199C63.9878 47.9382 65.9681 45.8581 66.0508 45.0508C66.1099 44.4619 65.4435 44.3028 65.089 43.7757C64.7369 43.2557 60.9417 39.5254 60.4856 39.732C60.4289 39.7581 60.3722 39.7819 60.3155 39.8103C60.2848 39.8246 60.2564 39.8365 60.2281 39.8483C60.2021 39.8602 60.1784 39.8697 60.1572 39.8816C60.1123 39.903 60.0745 39.9196 60.0414 39.9314C60.0177 39.9433 59.9965 39.9528 59.9776 39.9623C59.9587 39.9694 59.9421 39.9766 59.9232 39.9861C59.9019 39.9956 59.8901 40.0003 59.8901 40.0003C58.6424 40.5607 57.3828 41.1044 56.1162 41.6292C58.64 43.8517 61.1379 46.1146 63.4868 48.5199Z" fill="#F78A97"/>
<path d="M52.0469 55.9259C52.8787 56.5978 54.0532 55.705 55.1473 55.1328C54.0012 53.8933 52.8551 52.6562 51.709 51.4167C51.7752 51.9842 51.6003 55.5649 52.0469 55.9259Z" fill="#F78A97"/>
<path d="M51.1607 56.187C51.5861 55.3584 51.0426 52.3238 50.8204 51.5022C50.1398 48.9948 49.7027 48.7217 47.72 50.4788C46.5006 51.5592 46.9331 56.2654 46.7866 57.937C48.4478 57.6592 50.4967 57.4764 51.1607 56.187Z" fill="#F78A97"/>
<path d="M58.4604 53.0979C56.759 51.6376 54.4124 48.5959 52.3943 47.8052C50.8819 47.2139 51.3757 47.1308 50.0807 48.3347C50.3478 48.622 50.6384 49.0874 50.9646 49.2892C52.0705 50.486 53.1788 51.6827 54.2848 52.877C56.1422 54.8858 56.1044 54.7814 58.4604 53.0979Z" fill="#F78A97"/>
<path d="M41.7318 58.3241C45.4372 58.374 45.8153 58.704 46.1131 55.3251C46.2218 54.0809 46.3328 52.8367 46.4415 51.5925C46.1296 51.8632 45.8153 52.1315 45.501 52.3974C42.963 54.5463 42.4951 55.1993 41.7318 58.3241Z" fill="#F78A97"/>
<path d="M38.1824 58.051C39.5625 58.2457 40.2596 58.533 40.9544 57.7328C41.2309 57.417 41.8193 55.3892 41.1151 55.9211C40.1509 56.6524 39.1749 57.3648 38.1824 58.051Z" fill="#F78A97"/>
<path d="M41.1127 55.9234C41.1221 55.9163 41.1269 55.9116 41.1316 55.9092C41.1292 55.9116 41.1221 55.9187 41.1127 55.9234Z" fill="#F78A97"/>
<path d="M28.4038 5.65835C28.4179 5.66073 28.4298 5.66547 28.4416 5.66785C28.4605 5.67022 28.4794 5.67735 28.4983 5.6821C28.5006 5.6821 28.5054 5.6821 28.5077 5.68447C28.5196 5.68447 28.5337 5.68684 28.5432 5.69159C28.5526 5.69397 28.5621 5.69397 28.5668 5.69872C29.0489 5.81032 29.5262 5.93616 29.9989 6.07388C30.0485 5.42328 30.1099 4.7703 30.1785 4.12207C29.297 4.53285 28.4392 4.98875 27.6027 5.48976C27.8697 5.54675 28.1344 5.60374 28.4014 5.65835H28.4038Z" fill="#F78A97"/>
<path d="M29.9138 7.36324C30.006 5.7581 26.1092 6.57017 25.3246 7.01657C24.0981 7.71703 22.8882 8.9945 21.8981 10.0108C24.5802 10.0986 27.26 10.602 29.7933 11.4948C29.7956 10.1176 29.8335 8.74043 29.9138 7.36324Z" fill="#F78A97"/>
<path d="M22.5787 10.9415C22.5338 10.9392 22.5385 10.9392 22.5787 10.9415V10.9415Z" fill="#F78A97"/>
<path d="M29.9658 17.0012C29.8264 14.8737 30.4242 13.2115 28.8244 12.1169C27.3782 11.1268 24.2352 11.0437 22.5952 10.9439C22.5881 10.9439 22.5834 10.9439 22.5786 10.9439C22.5834 10.9439 22.5905 10.9439 22.5952 10.9439C20.2557 10.8015 19.2183 13.0453 18.0485 14.9425C22.236 14.6243 26.1446 15.3984 29.9658 17.0012Z" fill="#F78A97"/>
<path d="M23.2214 15.973C23.1907 15.9683 23.1623 15.9659 23.134 15.9612C23.1647 15.9659 23.1931 15.9706 23.2214 15.973Z" fill="#F78A97"/>
<path d="M23.134 15.9612C23.108 15.9588 23.0867 15.954 23.0631 15.9517C23.0867 15.9564 23.1104 15.9588 23.134 15.9612C21.9477 15.8092 18.4857 15.161 17.4885 15.8852C16.7417 16.4266 16.2266 18.3784 15.9028 19.1762C20.2888 19.0266 24.273 17.7895 28.6874 17.4428C26.9292 16.6569 25.0387 16.2081 23.134 15.9612Z" fill="#F78A97"/>
<path d="M23.902 16.0608C23.8429 16.0537 23.7697 16.0442 23.694 16.0348C23.7791 16.0442 23.85 16.0537 23.902 16.0608Z" fill="#F78A97"/>
<path d="M23.2214 15.9731C23.3207 15.9849 23.427 15.999 23.5286 16.0132C23.4388 16.0014 23.3396 15.9896 23.2214 15.9731Z" fill="#F78A97"/>
<path d="M23.902 16.0609C24.1123 16.0869 24.1856 16.0964 23.902 16.0609V16.0609Z" fill="#F78A97"/>
<path d="M16.6638 20.0761C15.6146 20.0263 15.5555 20.0239 15.2223 21.0426C15.91 20.7101 16.6071 20.3967 17.316 20.107C17.0986 20.0951 16.8812 20.0856 16.6638 20.0761Z" fill="#F78A97"/>
<path d="M21.624 49.5053C22.8622 50.8112 24.1478 52.5731 25.6909 52.1694C26.9528 51.8394 28.5976 49.8472 29.5901 48.8927C27.6121 49.1087 23.2923 48.4938 21.624 49.5053Z" fill="#F78A97"/>
<path d="M62.5746 49.5243C60.8212 48.0236 59.0772 46.5134 57.345 44.989C55.5821 43.4338 55.171 42.4863 52.9992 42.8781C50.9528 43.2462 48.4171 44.431 46.5314 45.16C42.8472 46.5894 39.924 50.1226 36.7007 52.4829C36.7007 52.4829 36.7007 52.4829 36.6984 52.4829C36.6795 52.4971 36.6653 52.5066 36.6511 52.5185C34.8859 53.8102 33.0568 55.0069 31.1781 56.1253C32.4447 56.6572 35.1009 57.9987 36.6204 57.785C38.2297 57.5595 40.3801 55.3655 41.7035 54.3302C43.724 52.7536 45.6759 51.1009 47.5853 49.3961C48.4313 48.6386 49.2253 47.7909 50.1091 47.0786C51.7231 45.7797 51.2269 45.5542 53.0914 47.2234C54.2233 48.2349 57.7988 52.585 59.2024 52.5517C60.0839 52.528 62.0524 50.0728 62.5746 49.5243Z" fill="#F78A97"/>
<path d="M21.4798 28.8213C24.6606 27.8288 27.9572 27.2114 31.275 27.0784C31.1946 26.6819 31.0788 24.8393 30.8591 23.9275L31.5704 23.5547C31.9248 25.9102 32.388 28.2491 32.9599 30.5594C33.6948 27.4655 34.952 24.59 35.3821 21.5673C35.4317 21.2111 35.4719 20.8526 35.4979 20.4893C35.5333 19.9622 35.5428 19.4232 35.5121 18.8794C35.5074 18.7369 35.4955 18.5968 35.4837 18.4568C35.4837 18.4544 35.4837 18.452 35.4837 18.4496C35.4837 18.4473 35.4837 18.4425 35.4837 18.4401C35.4695 18.2715 35.4554 18.1006 35.453 17.913C35.4459 17.9083 35.4459 17.9083 35.4388 17.9035C35.1009 13.7933 35.0914 9.6451 35.453 5.53965C35.5546 4.40703 35.6917 3.28628 35.8925 2.16553C34.581 2.46234 31.8445 2.73303 31.1308 3.69231C30.5188 4.521 30.8496 6.63428 30.7905 7.77165C30.6204 10.9558 30.6653 14.1566 30.8851 17.3384C30.9512 18.2787 31.0339 19.2142 31.1356 20.1498L30.3439 20.5629C30.2187 18.4924 30.2352 18.1291 27.2009 18.4924C24.0485 18.8747 20.9387 19.6321 17.9847 20.8027C17.9824 20.8027 17.9824 20.8027 17.9824 20.8027C16.6519 21.3275 15.3688 21.7145 14.7024 22.8709C14.1825 23.7684 14.1399 25.4757 14.0147 26.5679C17.6894 24.6565 21.7327 23.4669 25.8469 22.9089L23.2096 24.2861C21.6689 24.609 20.1494 25.0245 18.6653 25.5422C18.6771 25.5374 18.689 25.5327 18.6984 25.5303C18.6913 25.5327 18.6771 25.5374 18.6653 25.5422C18.6582 25.5445 18.6511 25.5469 18.6441 25.5493C17.5121 25.9458 14.4897 26.7888 13.8918 27.8668C13.7122 28.1921 13.6555 28.7073 13.6579 29.2748L2.50625 35.1042C1.11437 35.8331 -0.272786 37.386 0.046236 38.1886C0.329811 38.9057 1.86821 38.7537 2.35738 38.6564C2.58187 38.6112 2.82055 38.5258 3.01433 38.4474C3.14902 38.3928 3.14193 38.2005 3.00487 38.1506C2.64095 38.02 2.37155 37.8514 2.27939 37.6306C1.85167 36.6262 6.42905 36.6855 10.1533 34.7314L10.1864 34.7124C10.1888 34.7124 10.1888 34.71 10.1935 34.71C10.2195 34.6957 10.2431 34.6839 10.2715 34.6672L10.4227 34.5889L10.5243 34.5343C10.5574 34.5153 10.5882 34.501 10.6165 34.4868L21.4727 28.8237L21.4798 28.8213ZM11.4082 33.0621V33.0597L11.3751 33.074L11.368 33.0764L11.3444 33.093L11.2782 33.1262L11.2238 33.1571L10.7559 33.404V33.4064L10.2101 33.6913L10.1462 33.7246L10.0116 33.7934L9.86267 33.8718L9.82014 33.8932L9.79651 33.905L9.77524 33.9169L9.74215 33.9359C7.98162 34.8572 5.94933 35.3226 4.46292 35.6622C3.60747 35.8569 2.94816 36.0064 2.45663 36.2035C2.59133 36.0991 2.74257 35.9993 2.9198 35.9067L13.7098 30.2721L26.1045 23.7969L28.2903 22.6572C28.2903 22.6572 28.2927 22.6572 28.2998 22.6548L28.4345 22.5836L29.4081 22.0754L30.4124 21.5507L31.2419 21.1162C31.2986 21.6172 31.3648 22.1158 31.4333 22.6144L30.0107 23.3624H30.0083L29.8028 23.4669L28.9757 23.899L13.8753 31.7823L11.4082 33.0621Z" fill="#F78A97"/>
<path d="M31.5397 28.3867C30.9985 25.8532 15.9596 31.9247 14.3999 32.7463C20.303 34.0688 26.6007 33.5655 32.4731 32.3117C32.1423 31.0082 31.8209 29.7022 31.5397 28.3867Z" fill="#F78A97"/>
<path d="M45.5506 1.69061C44.9669 1.61938 42.0343 1.00439 41.5026 1.48641C41.3206 1.65025 41.4742 2.63328 41.4033 2.8731C40.8196 4.8724 41.2214 7.74313 41.2615 9.80417C42.7598 7.09253 44.6361 4.63733 45.5506 1.69061Z" fill="#F78A97"/>
<path d="M36.533 18.3499H36.5353C36.5779 18.6586 36.6228 18.9649 36.6724 19.2736C36.852 18.8438 37.034 18.414 37.2183 17.989C37.4097 17.5473 37.6035 17.1057 37.8043 16.6688H37.8067C38.6173 14.876 39.4845 13.1094 40.4085 11.3713C40.2809 8.09456 40.3258 4.7893 40.5999 1.51965C38.9221 1.60988 37.4239 1.50066 36.6889 2.79949C36.325 3.44772 36.4195 4.82491 36.3534 5.50164C35.9824 9.45988 35.9375 13.4537 36.4077 17.4001C36.4479 17.7159 36.4881 18.0317 36.533 18.3499Z" fill="#F78A97"/>
<path d="M58.4415 22.8424C59.9232 22.1205 61.3954 21.375 62.8559 20.608C62.844 20.6151 62.8346 20.6199 62.8275 20.6222C62.8346 20.6175 62.8464 20.6128 62.8559 20.6056C62.8559 20.6056 62.8559 20.6056 62.8582 20.6056C62.896 20.5843 62.9291 20.5676 62.9575 20.5534C62.922 20.5724 62.8866 20.5914 62.8582 20.6056C64.4581 19.7651 66.651 17.7254 66.5896 15.6501C66.5589 14.5436 64.77 12.8577 64.1414 12.0765C62.6526 15.8591 60.6511 19.4445 58.4415 22.8424Z" fill="#F78A97"/>
<path d="M60.7976 8.5647C57.2505 14.28 53.9681 20.1782 51.0213 26.2284C52.9874 25.3949 54.9346 24.5188 56.863 23.6046C58.1509 21.705 58.3446 21.3845 58.139 21.6575C59.7318 19.1572 61.1851 16.5619 62.4092 13.8621C63.7278 10.951 63.2292 10.7183 60.7976 8.5647Z" fill="#F78A97"/>
<path d="M47.9941 18.858C47.9681 18.9221 47.9374 18.991 47.9043 19.0717C47.935 18.9934 47.9657 18.9245 47.9941 18.858Z" fill="#F78A97"/>
<path d="M47.4884 20.0547C47.4884 20.0547 47.4884 20.0571 47.486 20.0571C47.4648 20.1091 47.4411 20.1611 47.4199 20.2131C47.4459 20.1611 47.4671 20.1067 47.4884 20.0547Z" fill="#F78A97"/>
<path d="M47.4506 11.6325C47.1718 12.1098 46.9 12.5894 46.6354 13.0738C46.2265 13.8099 45.8295 14.5507 45.4443 15.2987C45.2057 15.757 44.9694 16.2176 44.7401 16.683C42.5448 21.1114 40.7275 25.7297 39.4562 30.4834C40.4558 30.1771 43.2939 29.7473 44.095 28.94C45.5909 27.4322 46.1627 23.2128 47.0229 21.1684C47.0489 21.1066 47.0749 21.0449 47.1009 20.9832C47.0749 21.0425 47.0513 21.1043 47.0229 21.166C47.0442 21.1138 47.0725 21.0497 47.1009 20.9808C47.1103 20.9594 47.1198 20.9357 47.1293 20.9143C47.1552 20.8502 47.186 20.7813 47.2167 20.7101C47.2285 20.6745 47.2427 20.6436 47.2592 20.6104C47.264 20.5961 47.271 20.5843 47.2758 20.57C47.2829 20.551 47.2899 20.532 47.2994 20.513C47.3207 20.4655 47.3419 20.4204 47.3585 20.3753V20.3729C47.401 20.2803 47.4365 20.1901 47.4719 20.1046C47.479 20.0904 47.4861 20.0738 47.4908 20.0595C47.4908 20.0595 47.4908 20.0571 47.4932 20.0571C47.505 20.031 47.5144 20.0073 47.5263 19.9812C47.687 19.5917 47.8547 19.1857 48.0343 18.7725C48.0461 18.7417 48.058 18.7132 48.0721 18.6799C48.0792 18.6657 48.084 18.6491 48.091 18.6348C48.7504 17.0748 49.4853 15.4032 50.3266 13.7719L51.7752 13.0121C48.8591 17.8869 46.874 23.6473 45.182 28.5482C46.236 28.1612 47.5452 27.8525 48.5046 27.2708C50.1422 26.2782 50.362 25.5232 51.2529 23.7589C52.77 20.7457 54.3746 17.7729 56.0453 14.8404C56.6267 13.8099 59.3395 10.4904 59.9847 8.72855L70.8693 3.04644C71.6538 2.63329 71.9587 1.65738 71.5475 0.866681C71.2639 0.31343 70.7015 0 70.1225 0C69.8744 0 69.6168 0.0593617 69.3828 0.182834L57.0237 6.63189C56.8795 6.67938 56.7543 6.74586 56.6432 6.82897L53.7956 8.31776C54.5542 7.40834 55.3766 6.60577 56.2627 5.96466C55.6814 4.91515 53.6964 3.26014 52.6117 3.64956C51.6972 3.97961 50.5841 6.54641 50.0997 7.28962C49.1852 8.71192 48.299 10.158 47.4506 11.6325ZM52.5314 9.99176L54.7054 8.85439L58.8338 6.69837L69.7917 0.978281C69.8933 0.923668 70.0043 0.897549 70.1178 0.897549C70.3848 0.897549 70.6258 1.04477 70.7511 1.28221C70.9307 1.63126 70.796 2.06341 70.4486 2.24387L60.0201 7.68853L52.7275 11.4948L51.0757 12.3567L52.5314 9.99176Z" fill="#F78A97"/>
<path d="M39.104 15.9897C38.9197 16.3886 38.733 16.7922 38.5511 17.1935C38.5298 17.2386 38.5133 17.2814 38.4944 17.3265H38.492C38.1848 18.0103 37.8847 18.7013 37.5964 19.3946C37.4168 19.8244 37.2419 20.2542 37.0718 20.6863H37.0694C35.5877 24.3786 34.3731 28.1802 33.5389 32.0767C34.7252 31.8036 37.6318 31.5329 38.5062 30.5641C39.5436 29.4149 39.8035 26.1975 40.3541 24.6802C40.6519 23.8586 40.9638 23.0418 41.2923 22.2298C41.9516 20.5937 42.6629 18.9696 43.4262 17.3668C43.6389 16.9109 43.8587 16.4574 44.0832 16.0063C44.4447 15.2702 44.8157 14.5436 45.2009 13.8218C45.4491 13.3469 45.7019 12.8767 45.9666 12.409C47.557 9.52398 49.3104 6.72685 51.208 4.05557C51.208 4.05557 51.208 4.05557 51.208 4.0532L51.2104 4.05083C51.4112 3.76589 51.6192 3.48333 51.8319 3.20551C50.9575 2.88496 49.6271 2.25335 48.644 2.24386C46.9284 2.23198 47.479 2.00403 46.2454 3.33848C44.9221 4.77029 43.9579 6.90019 42.9796 8.58843C41.583 11.0009 40.2856 13.4656 39.104 15.9897Z" fill="#F78A97"/>
<path d="M16.1533 37.5522C18.4834 38.6468 21.9454 38.5139 24.4503 38.4308C30.0462 38.2456 35.583 36.9064 40.9095 35.2229C49.7972 32.4139 58.3588 28.4817 66.5211 23.9916C66.5187 23.9916 66.5164 23.994 66.5164 23.994C66.5187 23.9916 66.5211 23.9916 66.5234 23.9916C67.041 23.7067 69.1631 22.9326 69.3899 22.3651C69.5719 21.9068 68.2863 19.1002 68.1327 18.7417C52.9993 27.4678 32.0359 37.5831 14.0573 33.5963C14.3526 35.8853 14.3148 36.6879 16.1533 37.5522Z" fill="#F78A97"/>
<path d="M19.9367 42.8805C24.715 43.1607 29.5192 42.7025 34.2148 41.8073C43.6673 40.0051 52.8008 36.5336 61.4238 32.2952C61.4215 32.2952 61.4215 32.2952 61.4238 32.2952C63.7373 31.1578 67.2962 29.9539 69.2009 28.1208C70.139 27.2185 70.0067 27.767 70.1674 26.2996C70.269 25.376 69.8342 24.184 69.6168 23.2698C54.7834 31.9556 32.5889 43.1916 15.038 38.1862C15.3664 39.2713 15.6287 40.6438 16.2928 41.5485C17.3538 42.9898 18.0155 42.7689 19.9367 42.8805Z" fill="#F78A97"/>
<path d="M70.3588 28.4675C55.0221 38.0271 35.4861 45.3357 17.2924 43.5644C18.741 46.2166 19.7925 48.3727 22.9119 48.3679C26.1163 48.3632 29.3136 48.0854 32.4802 47.6057C37.1994 46.891 41.8476 45.718 46.3919 44.2577C53.0985 42.1041 59.6184 39.3354 65.883 36.1133C67.2158 35.4271 69.4679 34.6269 70.1792 33.3874C70.8267 32.2619 70.4226 29.7901 70.3588 28.4675Z" fill="#F78A97"/>
<path d="M79.9838 67.1523C79.7002 64.994 78.3839 62.2704 73.7238 61.5581C71.0653 61.1521 68.109 61.5082 65.9515 61.767C65.512 61.8193 65.1102 61.8691 64.7605 61.9024C62.2178 62.1565 59.6656 62.4224 57.1063 62.6883C46.9756 63.745 36.4998 64.8372 26.3171 65.1744C22.5101 65.3026 15.1891 64.4597 14.7354 60.3756C14.6622 59.725 14.8512 59.4923 14.9197 59.4045C15.5956 58.5663 17.9351 58.3359 19.4829 58.184C20.1115 58.1222 20.707 58.0652 21.234 57.975C23.6988 57.5595 26.5062 56.916 29.115 55.3726C29.5073 55.5578 29.8713 55.6765 30.169 55.6742C30.6015 55.6718 31.1072 55.0212 31.5207 54.8645C33.6924 54.0358 36.0863 51.9011 37.8799 50.4646C39.3852 49.2583 40.7889 47.9405 42.0532 46.4778C39.1465 47.2662 36.2021 47.9191 33.2269 48.3964C31.1237 49.9469 28.8291 51.1722 26.6692 52.6111C24.7078 53.6226 22.5597 54.0951 20.6409 54.4204C20.2368 54.4893 19.7027 54.5415 19.1379 54.5962C16.7417 54.8312 13.7571 55.1233 12.136 57.1321C11.5877 57.8112 10.9757 58.996 11.1742 60.7721C11.8713 67.0265 19.8327 68.9854 26.4376 68.7694C36.7456 68.4274 47.2851 67.3281 57.4773 66.2667C60.0319 66.0007 62.5793 65.7348 65.115 65.4807C65.486 65.4427 65.909 65.3929 66.3769 65.3359C72.1405 64.6425 76.0563 64.766 76.4296 67.6154C76.4343 67.6581 76.4391 67.7008 76.4391 67.7436C76.4603 68.6103 77.1102 69.325 77.9727 69.325H78.0767C79.237 69.3321 80.1326 68.3087 79.9838 67.1523Z" fill="#F78A97"/>
</svg>
